<mxfile host="app.diagrams.net" modified="2022-11-03T16:38:09.533Z" agent="5.0 (Macintosh; Intel Mac OS X 10_15_6) AppleWebKit/605.1.15 (KHTML, like Gecko) Version/15.6.1 Safari/605.1.15" etag="zjxjbxHXjgOFP7SUvxnI" version="20.5.1" type="github">
  <diagram id="MSX53TrYDodRBLnRVRFr" name="第 1 页">
    <mxGraphModel dx="1737" dy="1537" grid="1" gridSize="10" guides="1" tooltips="1" connect="1" arrows="1" fold="1" page="1" pageScale="1" pageWidth="827" pageHeight="1169" math="0" shadow="0">
      <root>
        <mxCell id="0" />
        <mxCell id="1" parent="0" />
        <mxCell id="mMbczzAX5C-Dak8G2ceU-1" value="&lt;font size=&quot;3&quot;&gt;會員&lt;/font&gt;" style="shape=umlActor;verticalLabelPosition=bottom;verticalAlign=top;html=1;outlineConnect=0;" vertex="1" parent="1">
          <mxGeometry x="20" y="540" width="70" height="140" as="geometry" />
        </mxCell>
        <mxCell id="mMbczzAX5C-Dak8G2ceU-2" value="&lt;font style=&quot;font-size: 18px;&quot;&gt;訪客&lt;/font&gt;" style="shape=umlActor;verticalLabelPosition=bottom;verticalAlign=top;html=1;outlineConnect=0;" vertex="1" parent="1">
          <mxGeometry x="10" y="60" width="70" height="140" as="geometry" />
        </mxCell>
        <mxCell id="mMbczzAX5C-Dak8G2ceU-5" value="" style="endArrow=none;html=1;rounded=0;exitX=0;exitY=1;exitDx=0;exitDy=0;" edge="1" parent="1" source="mMbczzAX5C-Dak8G2ceU-73">
          <mxGeometry width="50" height="50" relative="1" as="geometry">
            <mxPoint x="140" y="260" as="sourcePoint" />
            <mxPoint x="90" y="150" as="targetPoint" />
          </mxGeometry>
        </mxCell>
        <mxCell id="mMbczzAX5C-Dak8G2ceU-6" value="" style="endArrow=none;html=1;rounded=0;entryX=0;entryY=0.5;entryDx=0;entryDy=0;" edge="1" parent="1" target="mMbczzAX5C-Dak8G2ceU-11">
          <mxGeometry width="50" height="50" relative="1" as="geometry">
            <mxPoint x="90" y="150" as="sourcePoint" />
            <mxPoint x="140" y="150" as="targetPoint" />
            <Array as="points" />
          </mxGeometry>
        </mxCell>
        <mxCell id="mMbczzAX5C-Dak8G2ceU-8" value="" style="endArrow=none;html=1;rounded=0;shadow=1;" edge="1" parent="1">
          <mxGeometry width="50" height="50" relative="1" as="geometry">
            <mxPoint x="180" y="600" as="sourcePoint" />
            <mxPoint x="140" y="610" as="targetPoint" />
          </mxGeometry>
        </mxCell>
        <mxCell id="mMbczzAX5C-Dak8G2ceU-9" value="" style="endArrow=none;html=1;rounded=0;exitX=0;exitY=0.5;exitDx=0;exitDy=0;" edge="1" parent="1" source="mMbczzAX5C-Dak8G2ceU-15">
          <mxGeometry width="50" height="50" relative="1" as="geometry">
            <mxPoint x="145" y="450" as="sourcePoint" />
            <mxPoint x="140" y="600" as="targetPoint" />
            <Array as="points" />
          </mxGeometry>
        </mxCell>
        <mxCell id="mMbczzAX5C-Dak8G2ceU-11" value="&lt;font style=&quot;font-size: 24px;&quot;&gt;註冊會員&lt;/font&gt;" style="ellipse;whiteSpace=wrap;html=1;" vertex="1" parent="1">
          <mxGeometry x="220" y="110" width="230" height="70" as="geometry" />
        </mxCell>
        <mxCell id="mMbczzAX5C-Dak8G2ceU-13" value="&lt;font style=&quot;font-size: 24px;&quot;&gt;訂購機票&lt;/font&gt;" style="ellipse;whiteSpace=wrap;html=1;strokeColor=default;fontFamily=Helvetica;fontSize=12;fontColor=default;fillColor=default;" vertex="1" parent="1">
          <mxGeometry x="210" y="440" width="220" height="60" as="geometry" />
        </mxCell>
        <mxCell id="mMbczzAX5C-Dak8G2ceU-14" value="&lt;font style=&quot;font-size: 24px;&quot;&gt;更改航班&lt;/font&gt;" style="ellipse;whiteSpace=wrap;html=1;strokeColor=default;fontFamily=Helvetica;fontSize=12;fontColor=default;fillColor=default;" vertex="1" parent="1">
          <mxGeometry x="180" y="570" width="230" height="70" as="geometry" />
        </mxCell>
        <mxCell id="mMbczzAX5C-Dak8G2ceU-15" value="&lt;font style=&quot;font-size: 24px;&quot;&gt;取消機票&lt;/font&gt;" style="ellipse;whiteSpace=wrap;html=1;strokeColor=default;fontFamily=Helvetica;fontSize=12;fontColor=default;fillColor=default;" vertex="1" parent="1">
          <mxGeometry x="190" y="690" width="190" height="100" as="geometry" />
        </mxCell>
        <mxCell id="mMbczzAX5C-Dak8G2ceU-19" value="&lt;font size=&quot;3&quot;&gt;System owner&lt;/font&gt;" style="shape=umlActor;verticalLabelPosition=bottom;verticalAlign=top;html=1;outlineConnect=0;strokeColor=default;fontFamily=Helvetica;fontSize=12;fontColor=default;fillColor=default;" vertex="1" parent="1">
          <mxGeometry x="800" y="460" width="80" height="90" as="geometry" />
        </mxCell>
        <mxCell id="mMbczzAX5C-Dak8G2ceU-21" value="&lt;font style=&quot;font-size: 24px;&quot;&gt;Airline&amp;nbsp;&lt;/font&gt;" style="shape=umlActor;verticalLabelPosition=bottom;verticalAlign=top;html=1;outlineConnect=0;strokeColor=default;fontFamily=Helvetica;fontSize=12;fontColor=default;fillColor=default;" vertex="1" parent="1">
          <mxGeometry x="1510" y="410" width="80" height="135" as="geometry" />
        </mxCell>
        <mxCell id="mMbczzAX5C-Dak8G2ceU-27" value="" style="endArrow=none;html=1;rounded=0;fontFamily=Helvetica;fontSize=12;fontColor=default;" edge="1" parent="1">
          <mxGeometry width="50" height="50" relative="1" as="geometry">
            <mxPoint x="650" y="435" as="sourcePoint" />
            <mxPoint x="780" y="520" as="targetPoint" />
          </mxGeometry>
        </mxCell>
        <mxCell id="mMbczzAX5C-Dak8G2ceU-28" value="" style="endArrow=none;html=1;rounded=0;fontFamily=Helvetica;fontSize=12;fontColor=default;" edge="1" parent="1">
          <mxGeometry width="50" height="50" relative="1" as="geometry">
            <mxPoint x="660" y="640" as="sourcePoint" />
            <mxPoint x="780" y="510" as="targetPoint" />
          </mxGeometry>
        </mxCell>
        <mxCell id="mMbczzAX5C-Dak8G2ceU-29" value="" style="endArrow=none;html=1;rounded=0;fontFamily=Helvetica;fontSize=12;fontColor=default;" edge="1" parent="1">
          <mxGeometry width="50" height="50" relative="1" as="geometry">
            <mxPoint x="700" y="770" as="sourcePoint" />
            <mxPoint x="780" y="510" as="targetPoint" />
          </mxGeometry>
        </mxCell>
        <mxCell id="mMbczzAX5C-Dak8G2ceU-30" value="" style="endArrow=none;html=1;rounded=0;fontFamily=Helvetica;fontSize=12;fontColor=default;" edge="1" parent="1">
          <mxGeometry width="50" height="50" relative="1" as="geometry">
            <mxPoint x="660" y="360" as="sourcePoint" />
            <mxPoint x="780" y="520" as="targetPoint" />
          </mxGeometry>
        </mxCell>
        <mxCell id="mMbczzAX5C-Dak8G2ceU-35" value="" style="endArrow=none;html=1;rounded=0;fontFamily=Helvetica;fontSize=12;fontColor=default;" edge="1" parent="1" target="mMbczzAX5C-Dak8G2ceU-38">
          <mxGeometry width="50" height="50" relative="1" as="geometry">
            <mxPoint x="890" y="570" as="sourcePoint" />
            <mxPoint x="1040" y="340" as="targetPoint" />
          </mxGeometry>
        </mxCell>
        <mxCell id="mMbczzAX5C-Dak8G2ceU-37" value="" style="endArrow=none;html=1;rounded=0;fontFamily=Helvetica;fontSize=12;fontColor=default;" edge="1" parent="1">
          <mxGeometry width="50" height="50" relative="1" as="geometry">
            <mxPoint x="1020" y="730" as="sourcePoint" />
            <mxPoint x="890" y="570" as="targetPoint" />
          </mxGeometry>
        </mxCell>
        <mxCell id="mMbczzAX5C-Dak8G2ceU-38" value="&lt;font style=&quot;font-size: 24px;&quot;&gt;傳送會員資料&lt;/font&gt;" style="ellipse;whiteSpace=wrap;html=1;strokeColor=default;fontFamily=Helvetica;fontSize=12;fontColor=default;fillColor=default;" vertex="1" parent="1">
          <mxGeometry x="980" y="300" width="170" height="80" as="geometry" />
        </mxCell>
        <mxCell id="mMbczzAX5C-Dak8G2ceU-39" value="&lt;font style=&quot;font-size: 24px;&quot;&gt;航班資料擷取&lt;/font&gt;" style="ellipse;whiteSpace=wrap;html=1;strokeColor=default;fontFamily=Helvetica;fontSize=12;fontColor=default;fillColor=default;" vertex="1" parent="1">
          <mxGeometry x="1000" y="710" width="150" height="90" as="geometry" />
        </mxCell>
        <mxCell id="mMbczzAX5C-Dak8G2ceU-40" value="&lt;font style=&quot;font-size: 24px;&quot;&gt;會員資料擷取&lt;/font&gt;" style="ellipse;whiteSpace=wrap;html=1;strokeColor=default;fontFamily=Helvetica;fontSize=12;fontColor=default;fillColor=default;" vertex="1" parent="1">
          <mxGeometry x="1130" y="210" width="220" height="80" as="geometry" />
        </mxCell>
        <mxCell id="mMbczzAX5C-Dak8G2ceU-41" value="" style="endArrow=none;html=1;rounded=0;fontFamily=Helvetica;fontSize=12;fontColor=default;entryX=0.5;entryY=1;entryDx=0;entryDy=0;" edge="1" parent="1" target="mMbczzAX5C-Dak8G2ceU-40">
          <mxGeometry width="50" height="50" relative="1" as="geometry">
            <mxPoint x="1490" y="500" as="sourcePoint" />
            <mxPoint x="890" y="550" as="targetPoint" />
          </mxGeometry>
        </mxCell>
        <mxCell id="mMbczzAX5C-Dak8G2ceU-42" value="" style="endArrow=none;html=1;rounded=0;fontFamily=Helvetica;fontSize=12;fontColor=default;" edge="1" parent="1">
          <mxGeometry width="50" height="50" relative="1" as="geometry">
            <mxPoint x="1490" y="480" as="sourcePoint" />
            <mxPoint x="1360" y="650" as="targetPoint" />
          </mxGeometry>
        </mxCell>
        <mxCell id="mMbczzAX5C-Dak8G2ceU-43" value="" style="endArrow=none;html=1;rounded=0;fontFamily=Helvetica;fontSize=12;fontColor=default;exitX=1;exitY=1;exitDx=0;exitDy=0;" edge="1" parent="1" source="mMbczzAX5C-Dak8G2ceU-50">
          <mxGeometry width="50" height="50" relative="1" as="geometry">
            <mxPoint x="1360" y="720" as="sourcePoint" />
            <mxPoint x="1490" y="480" as="targetPoint" />
          </mxGeometry>
        </mxCell>
        <mxCell id="mMbczzAX5C-Dak8G2ceU-45" value="" style="endArrow=none;html=1;rounded=0;fontFamily=Helvetica;fontSize=12;fontColor=default;" edge="1" parent="1">
          <mxGeometry width="50" height="50" relative="1" as="geometry">
            <mxPoint x="1330" y="550" as="sourcePoint" />
            <mxPoint x="1490" y="490" as="targetPoint" />
          </mxGeometry>
        </mxCell>
        <mxCell id="mMbczzAX5C-Dak8G2ceU-48" value="&lt;font style=&quot;font-size: 24px;&quot;&gt;傳送航班資訊&lt;/font&gt;" style="ellipse;whiteSpace=wrap;html=1;strokeColor=default;fontFamily=Helvetica;fontSize=12;fontColor=default;fillColor=default;" vertex="1" parent="1">
          <mxGeometry x="1140" y="490" width="210" height="102.5" as="geometry" />
        </mxCell>
        <mxCell id="mMbczzAX5C-Dak8G2ceU-49" value="&lt;font style=&quot;font-size: 24px;&quot;&gt;更新航班資料&lt;/font&gt;" style="ellipse;whiteSpace=wrap;html=1;strokeColor=default;fontFamily=Helvetica;fontSize=12;fontColor=default;fillColor=default;" vertex="1" parent="1">
          <mxGeometry x="1150" y="610" width="220" height="80" as="geometry" />
        </mxCell>
        <mxCell id="mMbczzAX5C-Dak8G2ceU-50" value="&lt;font style=&quot;font-size: 24px;&quot;&gt;航班異動通知&lt;/font&gt;" style="ellipse;whiteSpace=wrap;html=1;strokeColor=default;fontFamily=Helvetica;fontSize=12;fontColor=default;fillColor=default;" vertex="1" parent="1">
          <mxGeometry x="1160" y="710" width="190" height="100" as="geometry" />
        </mxCell>
        <mxCell id="mMbczzAX5C-Dak8G2ceU-53" value="&lt;font style=&quot;font-size: 24px;&quot;&gt;更新資訊&lt;/font&gt;" style="ellipse;whiteSpace=wrap;html=1;strokeColor=default;fontFamily=Helvetica;fontSize=12;fontColor=default;fillColor=default;" vertex="1" parent="1">
          <mxGeometry x="490" y="300" width="180" height="80" as="geometry" />
        </mxCell>
        <mxCell id="mMbczzAX5C-Dak8G2ceU-55" value="&lt;font style=&quot;font-size: 24px;&quot;&gt;傳送通知&lt;/font&gt;" style="ellipse;whiteSpace=wrap;html=1;strokeColor=default;fontFamily=Helvetica;fontSize=12;fontColor=default;fillColor=default;" vertex="1" parent="1">
          <mxGeometry x="490" y="400" width="170" height="110" as="geometry" />
        </mxCell>
        <mxCell id="mMbczzAX5C-Dak8G2ceU-56" value="&lt;font style=&quot;font-size: 24px;&quot;&gt;航空公司管理&lt;/font&gt;" style="ellipse;whiteSpace=wrap;html=1;strokeColor=default;fontFamily=Helvetica;fontSize=12;fontColor=default;fillColor=default;" vertex="1" parent="1">
          <mxGeometry x="460" y="600" width="200" height="80" as="geometry" />
        </mxCell>
        <mxCell id="mMbczzAX5C-Dak8G2ceU-57" value="&lt;font style=&quot;font-size: 24px;&quot;&gt;資料確認&lt;/font&gt;" style="ellipse;whiteSpace=wrap;html=1;strokeColor=default;fontFamily=Helvetica;fontSize=12;fontColor=default;fillColor=default;" vertex="1" parent="1">
          <mxGeometry x="510" y="740" width="200" height="90" as="geometry" />
        </mxCell>
        <mxCell id="mMbczzAX5C-Dak8G2ceU-62" value="" style="shape=flexArrow;endArrow=classic;html=1;rounded=0;fontFamily=Helvetica;fontSize=12;fontColor=default;endWidth=56.36363636363636;endSize=26.529032258064515;width=0.6451612903225806;" edge="1" parent="1">
          <mxGeometry width="50" height="50" relative="1" as="geometry">
            <mxPoint x="44.16999999999999" y="230" as="sourcePoint" />
            <mxPoint x="44.16999999999999" y="530" as="targetPoint" />
            <Array as="points">
              <mxPoint x="44.16999999999999" y="320" />
            </Array>
          </mxGeometry>
        </mxCell>
        <mxCell id="mMbczzAX5C-Dak8G2ceU-71" value="" style="endArrow=none;html=1;rounded=0;entryX=0;entryY=0.5;entryDx=0;entryDy=0;" edge="1" parent="1" target="mMbczzAX5C-Dak8G2ceU-13">
          <mxGeometry width="50" height="50" relative="1" as="geometry">
            <mxPoint x="140" y="610" as="sourcePoint" />
            <mxPoint x="109.99999999999727" y="385" as="targetPoint" />
            <Array as="points" />
          </mxGeometry>
        </mxCell>
        <mxCell id="mMbczzAX5C-Dak8G2ceU-73" value="&lt;font style=&quot;font-size: 24px;&quot;&gt;查詢航班資訊&lt;/font&gt;" style="ellipse;whiteSpace=wrap;html=1;strokeColor=default;fontFamily=Helvetica;fontSize=12;fontColor=default;fillColor=default;" vertex="1" parent="1">
          <mxGeometry x="190" y="220" width="260" height="95" as="geometry" />
        </mxCell>
        <mxCell id="mMbczzAX5C-Dak8G2ceU-83" value="Airline ticket system" style="swimlane;strokeColor=default;fontFamily=Helvetica;fontSize=24;fontColor=default;fillColor=default;html=1;" vertex="1" parent="1">
          <mxGeometry x="170" y="60" width="550" height="970" as="geometry" />
        </mxCell>
        <mxCell id="mMbczzAX5C-Dak8G2ceU-84" value="Airline ticket system" style="swimlane;strokeColor=default;fontFamily=Helvetica;fontSize=24;fontColor=default;fillColor=default;html=1;" vertex="1" parent="1">
          <mxGeometry x="930" y="60" width="520" height="970" as="geometry" />
        </mxCell>
      </root>
    </mxGraphModel>
  </diagram>
</mxfile>
